<svg width="37" height="29" fill="none" xmlns="http://www.w3.org/2000/svg"><path d="M35.458 18H1.542C.69 18 0 18.672 0 19.5S.69 21 1.542 21h33.916C36.31 21 37 20.328 37 19.5s-.69-1.5-1.542-1.5zm0-9H1.542C.69 9 0 9.672 0 10.5S.69 12 1.542 12h33.916C36.31 12 37 11.328 37 10.5S36.31 9 35.458 9zm0-9H1.542C.69 0 0 .672 0 1.5S.69 3 1.542 3h33.916C36.31 3 37 2.328 37 1.5S36.31 0 35.458 0zm0 26H1.542C.69 26 0 26.672 0 27.5S.69 29 1.542 29h33.916C36.31 29 37 28.328 37 27.5s-.69-1.5-1.542-1.5z" fill="#000"/></svg>